<?xml version="1.0" standalone="no"?>
<!DOCTYPE svg PUBLIC "-//W3C//DTD SVG 20010904//EN"
 "http://www.w3.org/TR/2001/REC-SVG-20010904/DTD/svg10.dtd">
<svg version="1.0" xmlns="http://www.w3.org/2000/svg"
 width="320.000000pt" height="320.000000pt" viewBox="0 0 320.000000 320.000000"
 preserveAspectRatio="xMidYMid meet">

<g transform="translate(0.000000,320.000000) scale(0.100000,-0.100000)"
fill="#000000" stroke="none">
<path d="M988 3030 c-320 -25 -520 -124 -669 -334 -92 -129 -133 -273 -150
-525 -17 -237 -6 -1188 14 -1311 53 -322 238 -548 523 -640 162 -52 213 -55
894 -55 678 0 733 3 891 54 129 42 212 92 305 185 125 126 196 275 226 482 19
127 19 1301 0 1428 -58 394 -295 639 -682 703 -77 13 -203 16 -670 18 -316 2
-623 -1 -682 -5z m1202 -260 c205 -15 311 -53 407 -142 73 -69 108 -125 138
-221 36 -113 45 -274 45 -812 0 -467 -9 -670 -31 -762 -47 -191 -192 -337
-382 -382 -93 -22 -297 -31 -762 -31 -538 0 -699 9 -812 45 -176 55 -289 176
-338 360 -26 99 -34 287 -34 775 0 753 16 855 161 1006 100 104 218 150 418
164 158 11 1047 11 1190 0z"/>
<path d="M2288 2520 c-55 -30 -82 -74 -86 -145 -3 -50 0 -66 20 -95 38 -55 82
-80 145 -80 98 0 163 59 171 153 10 135 -131 230 -250 167z"/>
<path d="M1459 2326 c-148 -31 -270 -98 -379 -206 -113 -114 -177 -234 -207
-393 -28 -150 -5 -305 66 -452 94 -190 250 -320 461 -386 107 -34 292 -34 400
0 134 41 226 96 320 191 95 94 150 186 191 320 34 108 34 293 0 400 -66 211
-196 367 -386 461 -44 21 -107 46 -140 55 -84 22 -245 27 -326 10z m256 -261
c172 -45 305 -179 350 -352 65 -249 -94 -511 -350 -578 -251 -65 -513 94 -580
350 -89 343 237 669 580 580z"/>
</g>
</svg>
